<svg id="Layer_1" data-name="Layer 1" xmlns="http://www.w3.org/2000/svg" viewBox="0 0 638 281.52"><defs><style>.cls-1{fill:#fff;}.cls-2{fill:#13084a;}.cls-3{fill:#380c6e;}.cls-4{fill:#c39116;}.cls-5{fill:#ccc;}</style></defs><title>UiTM Logo Vector</title><rect class="cls-1" x="0.19" width="233.37" height="175.24"/><path class="cls-1" d="M297.88,640.76c64.53,0,116.91-50.76,116.91-113.47s-52.38-113.5-116.91-113.5S181,464.6,181,527.29,233.33,640.76,297.88,640.76Z" transform="translate(-181 -359.24)"/><path class="cls-1" d="M297.88,496.15" transform="translate(-181 -359.24)"/><rect class="cls-2" x="3.96" y="5.03" width="224.51" height="168.59"/><path class="cls-3" d="M297.22,635.11c62.09,0,112.47-48.84,112.47-109.17S359.31,416.75,297.22,416.75,184.78,465.64,184.78,525.94,235.13,635.11,297.22,635.11Z" transform="translate(-181 -359.24)"/><polyline class="cls-3" points="115.58 180.44 115.58 180.44 136.69 194.16 115.58 207.33"/><path class="cls-1" d="M297.22,496" transform="translate(-181 -359.24)"/><polygon class="cls-4" points="48.09 106.19 115.82 139.13 184.36 106.19 115.82 129.13 48.09 106.19"/><polygon class="cls-4" points="48.09 91.92 115.82 124.86 184.36 91.92 115.82 114.89 48.09 91.92"/><path class="cls-4" d="M296.82,514.29l-67.73-24.45v-12L296.82,502c68.66-24,68.54-24.19,68.54-24.19v12Z" transform="translate(-181 -359.24)"/><polygon class="cls-4" points="48.09 77.31 115.82 110.26 184.36 77.31 115.82 100.3 48.09 77.31"/><polygon class="cls-4" points="48.09 63.34 115.82 96.26 184.36 63.34 115.82 86.31 48.09 63.34"/><polygon class="cls-4" points="48.09 48.81 115.82 81.75 184.36 48.81 115.82 71.81 48.09 48.81"/><polygon class="cls-4" points="48.09 39.25 48.09 39.25 115.82 60.06 184.36 39.25 115.82 15.98 48.09 39.25"/><path class="cls-1" d="M345.85,537.37l1.34-6.64L365.25,525l8.64,2.06,12.25,8.95-.6,1.46,3,7.57-7.21,7.85-9-12.92-7.72-3.35-4.58,4.18-4.13,1.68s.73,2.24-1.23,2.91l-5.45-2.3,9.42,14s-11.89-10.12-36.92,4.71c0,0-12.28,9.88-27.59,14.06,0,0-11.54,1.94-24.39,12.28s-35.93,16.68-49.2,22.1c0,0,22.93-18.64,30.53-21.72a113.35,113.35,0,0,0,18.06-11.21c11.95-8.85,18.94-10.7,26.51-12.71a58.06,58.06,0,0,0,20.69-13.09s9.48-5.28,11.46-7.34a43.9,43.9,0,0,0,6.2-10.87l.93,3.76s6-6.58,4.23-10.72Z" transform="translate(-181 -359.24)"/><path class="cls-1" d="M245.74,537.37l-1.31-6.64L226.34,525l-8.62,2.06-12.23,8.95.6,1.46L203,545.08l7.25,7.85,9-12.92,7.67-3.35,4.62,4.18,4.11,1.68s-.66,2.24,1.21,2.91l5.45-2.3-9.41,14s11.91-10.12,36.9,4.71c0,0,12.22,9.88,27.6,14.06,0,0,11.57,1.94,24.39,12.28s38.63,19.32,51.88,24.71c0,0-25.63-21.25-33.18-24.33a115.23,115.23,0,0,1-18.12-11.21c-11.89-8.85-18.85-10.7-26.46-12.71a57.85,57.85,0,0,1-20.71-13.09s-9.5-5.28-11.45-7.34a46.28,46.28,0,0,1-6.22-10.87l-.86,3.76s-6-6.58-4.28-10.72Z" transform="translate(-181 -359.24)"/><path class="cls-1" d="M398.73,580.63l-145.26-73H224.34l167.62,84A72.55,72.55,0,0,0,398.73,580.63Z" transform="translate(-181 -359.24)"/><path class="cls-1" d="M201.7,589.22l168.83-81.55H341.47L195.86,577.85S200.08,588.6,201.7,589.22Z" transform="translate(-181 -359.24)"/><path class="cls-3" d="M805,377.44c1.71-1.25,2.9-3,1.68-5.75-2.9-6.59-5.4-7.45-5.4-6.86a22.73,22.73,0,0,0,.18,4.81c.15.71.73,3.68,1.4,7.42a17.91,17.91,0,0,1-4.11,2.11,4.86,4.86,0,0,0,4.31-.72c1,6.47,2.55,18,2.76,20.82.49,5.36-3,7.27-8.7,12.66a11.21,11.21,0,0,0,10.21-11C807.83,391.33,806,382,805,377.44Zm-.38-2.22c-.63-4.39.58-4.94,1.44-2.05.3.9-.33,1.76-1.37,2.59C804.71,375.61,804.64,375.4,804.64,375.22Z" transform="translate(-181 -359.24)"/><path class="cls-3" d="M458.47,377.44c1.75-1.25,2.92-3,1.73-5.75-2.93-6.59-5.41-7.45-5.41-6.86a21.39,21.39,0,0,0,.17,4.81c.19.71.69,3.68,1.36,7.42a16.07,16.07,0,0,1-4.06,2.11,4.89,4.89,0,0,0,4.32-.72c1.07,6.47,2.53,18,2.78,20.82.38,5.36-3.1,7.27-8.78,12.66,0,0,9.64-.64,10.21-11C461.35,391.33,459.45,382,458.47,377.44Zm-.38-2.22c-.64-4.39.6-4.94,1.47-2.05.26.9-.31,1.76-1.36,2.59A2.86,2.86,0,0,1,458.09,375.22Z" transform="translate(-181 -359.24)"/><path class="cls-3" d="M794.83,399.84c-1.53-4.4-4-4.08-4-4.08-2.37,0-4.75,7.86-2.51,9.7s3.53,1.17,4.68-.83,1.86,0,1.14,1.8c-1.7,3.95-9,10.9-13.31,10.76-8.06-.26-5.76-10.45-5.38-12.38.31-1.25,1-3.69-.09-1.19-5.26,11.83,2.31,22.15,11.53,14.64C796.91,410.35,796.38,404.22,794.83,399.84Zm-4.27,2.7c-.63,0-1.16-.29-1.16-1s.69-1.69,1.28-1.69,1.27.94,1.27,1.57S791.17,402.54,790.56,402.54Z" transform="translate(-181 -359.24)"/><path class="cls-3" d="M785.13,383.11c-1,2.76-.4,2.76.18,4.12s.26,3.39-1.86,3.16-3.68-2.21-4.6-6c-1-4.41-2.91-8.9-3.46-7.71-1.74,3.54,1.56,6.65,1.45,10.39-.09,2.34-7.68,7.45-15.46,11.12a39.79,39.79,0,0,1-10,3.69,20.19,20.19,0,0,0-.52-2c-1.57-4.4-4-4.08-4-4.08-2.42,0-4.7,7.8-2.55,9.7a4.55,4.55,0,0,0,2.35,1.08,6.61,6.61,0,0,0,3.67-.77c-.06.17-.14.48-.21.66-1.69,3.95-9.09,10.9-13.29,10.76-8-.26-5.81-10.45-5.4-12.38.4-1.25,1-3.69-.08-1.19-5.25,11.83,2.26,22.15,11.53,14.64,6.3-5,8.38-9.31,8.79-12.87a63.33,63.33,0,0,0,12.4-5.18,56.4,56.4,0,0,0,14.13-10.8c.81-.73,1.7,4.93,4.61,4.93,2.49,0,3.59-2.5,4.41-5.6S785.13,383.11,785.13,383.11Zm-39.77,18.42c0-.61.64-1.69,1.31-1.69s1.24.94,1.24,1.57-.79,1.13-1.37,1.13S745.36,402.25,745.36,401.53Z" transform="translate(-181 -359.24)"/><path class="cls-3" d="M578.67,393.09a131.37,131.37,0,0,0-2-15.65c1.77-1.25,2.91-3,1.7-5.75-2.92-6.59-5.42-7.45-5.42-6.86a19.29,19.29,0,0,0,.25,4.81c.15.71.67,3.68,1.33,7.42a16.07,16.07,0,0,1-4.06,2.11,4.78,4.78,0,0,0,4.27-.72c.64,3.62,1.67,11.1,2.12,16.17,0,0,.17,6.27-6.3,7.26-.2-.72-.38-1.42-.6-2-1.57-4.4-4-4.08-4-4.08-2.36,0-4.7,7.8-2.54,9.7a4.81,4.81,0,0,0,2.34,1.08,5.11,5.11,0,0,0,3.24-.66,2.23,2.23,0,0,0-.18.75c-1.33,4.5-8.64,10.7-12.84,10.56-8-.26-5.81-10.45-5.37-12.38.32-1.25,1-3.69-.11-1.19-5.27,11.83,2.14,21.77,11.57,14.64,6.37-4.78,8.37-9.31,8.61-12.87C579.62,402.58,578.67,393.09,578.67,393.09Zm-12.17,9.45a1,1,0,0,1-1.08-1c0-.61.62-1.69,1.27-1.69s1.28.94,1.28,1.57S567.19,402.54,566.5,402.54Zm9.87-26.78a1,1,0,0,1-.1-.54c-.65-4.39.55-4.94,1.42-2.05C578,374.07,577.47,374.93,576.37,375.76Z" transform="translate(-181 -359.24)"/><path class="cls-3" d="M731.72,403.82s1.64-5-3.57-6c-4.36-.87-8.19,3.52-11.82,8.9-3.48,5.19-5.39,9.69-9.42,9.69s-3.68-5.14-2.78-8.43c.81-2.81-.37-.39-1,1.33-1.8,4.32-1.8,10.73,2.55,11.63,4,.89,7.13-4.49,11.71-11.45,3.75-5.69,6.91-7.14,9.13-7.57,1.81-.33,5.47-.58,4.07,4.8A8.75,8.75,0,0,0,731.72,403.82Z" transform="translate(-181 -359.24)"/><path class="cls-3" d="M489.31,403.82s1.66-5-3.53-6c-4.36-.87-8.3,3.52-11.89,8.9-3.51,5.19-5.34,9.69-9.42,9.69s-3.68-5.14-2.79-8.43c.79-2.81-.29-.39-1,1.33-1.78,4.32-1.8,10.73,2.58,11.63,4,.89,7.05-4.49,11.61-11.45,3.84-5.69,6.92-7.14,9.22-7.57,1.75-.33,5.38-.58,4,4.8A7.72,7.72,0,0,0,489.31,403.82Z" transform="translate(-181 -359.24)"/><path class="cls-3" d="M685.82,397.62c5.29,4.81,23.79-2,34-7.84,11.24-6.47,26-19,30.32-21.83s8.37-4,9,0-3.41,9.54-5.36,11.81-2.25,1.39-2.25,1.39-.81-.27.52-2.23c1.38-1.8,6.22-7.37,4.54-8.41s-4.87.17-10.38,4.16c-8.17,6-25.86,20.66-41.54,25.79-11.28,3.74-16.42,2-19.83-1.4,0,0-2.32,4.43-4.47,3s-3.83-3.63-5.8-1.09.47,3.85,2,3.85,6.09-.84,6.09,2.23-3.08,9-11.34,12.86-13.42-3.91-12-11c.64-3.61.24-1.08.64,1.41.35,2,1.81,7.07,6.93,6.8s14.24-6,13.83-8.31c-.29-1.71-1.94-1-4-1.14s-5,.82-4.28-4.57,4-7.92,5.25-7.06,3.91,3.46,5.27,2.37a7.86,7.86,0,0,0,2.78-3.06c.55-1.3.55.41.17,1.25s0,1.13,0,1.13Z" transform="translate(-181 -359.24)"/><path class="cls-3" d="M647.62,387.47c-1.08,2.73-.44,2.73.18,4.19s.2,3.34-1.89,3.12-3.64-2.3-4.61-6c-1-4.35-2.89-8.9-3.49-7.74-1.65,3.61,1.58,6.71,1.46,10.44-.11,2.37-3.69,4.84-8.65,3.34v0c-5-1.65-18.35-8.17-20.89-9.27-3-1.23-4.85-2.27-4.59-3s6.21-4.06,9.91-6.43,14.06-9,15.1-9.92,1.15-2.64-1.69-1.06c-4.71,2.54-21.75,13-24.39,15.15s-1.33,3.72.23,5.22,10,8.78,11.74,10.51-.24,2.81-1.71,3.46c-2.63,1.15-6,.61-6.87-1.13-.67-1.34-.61,1.46-.15,2.15,0,0,.07.13.15.17a18.12,18.12,0,0,1-6.87,1.25,17.63,17.63,0,0,0-.58-2c-1.59-4.4-4-4.08-4-4.08-2.37,0-4.92,6.35-2.73,8.29A7.71,7.71,0,0,0,595,405.1a8.59,8.59,0,0,0,4.61.29,2.9,2.9,0,0,1-.34,1c-1.69,3.95-9,10.9-13.2,10.76-8.09-.26-5.85-10.45-5.42-12.38.32-1.25,1-3.69-.12-1.19-5.21,11.83,2.24,22.15,11.59,14.64,6.27-5,8.42-9.31,8.71-12.87,3.39-.44,6.21-1.48,7.66-3a6.28,6.28,0,0,0,6.86-.54c2.94-2.1,2.39-6.79,2-7.89s-2-2,0-2.15,10.32,6.12,13.25,6.57h0c5.11.91,8.09-2.83,10.1-4.55.77-.72,1.65,4.91,4.55,4.91,2.53,0,3.57-2.47,4.4-5.63S647.62,387.47,647.62,387.47Zm-51.56,14.31a1,1,0,0,1-1.15-1c0-.59.69-1.66,1.3-1.66s1.24.91,1.24,1.56S596.68,401.78,596.06,401.78Z" transform="translate(-181 -359.24)"/><path class="cls-3" d="M546.43,399.44c1.51-.32,3.51-1.77,1.77-3.46s-10.2-9-11.75-10.51-2.84-3-.23-5.22,19.63-12.61,24.36-15.15c2.87-1.58,2.83.19,1.71,1.06s-10.87,6.87-14.55,9.31-10.12,6.35-10.42,7c-.74,1.36,3.51,3.63,6.75,6,2.68,2,6.95,4.7,6.09,9-.78,3.74-3.12,4.81-5.36,4.44l-.38-.1a9.32,9.32,0,0,1-4.22-2.72s-2.36,4.43-4.38,3-3.94-3.63-5.84-1.09.39,3.85,1.9,3.85S538,404,538,407s-3,9-11.37,12.86-13.37-3.91-12-11c.7-3.61.27-1.08.7,1.41.38,2,1.73,7.07,6.91,6.8s14.25-6,13.84-8.31c-.22-1.71-1.9-1-4-1.14s-4.93.82-4.25-4.57,4-7.92,5.26-7.06,3.87,3.46,5.28,2.37a8.25,8.25,0,0,0,2.75-3.06c.61-1.3.61.41.2,1.25s0,1.13,0,1.13v-.05a6.58,6.58,0,0,0,5.17,1.82Z" transform="translate(-181 -359.24)"/><path class="cls-3" d="M500.51,391.26c-1.46.53-2.76,3.86-2.76,5.71s.44,4.74-1.85,5.28c-3.14.5-4.38-12.66-5.22-23-.78-9.59-7.31-12.77-7.31-12.77l.52,4.1c3.51,2.56,4.88,7.84,5.63,18.13.6,7,2.51,13.88,5.07,15.86,2,1.54,3.53,1.22,5.33-.38,2.39-2,3.23-5,3.23-8.52A4.47,4.47,0,0,0,500.51,391.26Zm.58,8.68c-1.25,1-2.06,1-2.44-.55-.46-2,.63-3.89,1.27-3.89,0,0,1.54.52,1.72,1.47S501.93,399.27,501.09,399.94Z" transform="translate(-181 -359.24)"/><path class="cls-3" d="M781.16,367.14s1.45.87,1.91,1.05.47.4.21.78-.81,2.46-1.43,2.09-2.42-1.19-2.08-1.91C780.12,368.59,780.65,367.14,781.16,367.14Z" transform="translate(-181 -359.24)"/><path class="cls-3" d="M743.47,384.3s1.57.87,1.89,1.08.49.32.31.76-.84,2.48-1.48,2.06-2.46-1.13-2.06-1.8S743,384.3,743.47,384.3Z" transform="translate(-181 -359.24)"/><path class="cls-3" d="M601.13,387.65l1.9,1c.4.26.46.39.26.81s-.82,2.47-1.45,2-2.44-1.11-2.11-1.84S600.62,387.61,601.13,387.65Z" transform="translate(-181 -359.24)"/><path class="cls-3" d="M533.57,370s1.5.82,1.88,1.06.49.31.28.73-.84,2.44-1.48,2.06-2.41-1.17-2.06-1.84S533.1,370,533.57,370Z" transform="translate(-181 -359.24)"/><path class="cls-3" d="M760.49,406.74s1.45.87,1.82,1.14.42.35.21.77-1,2.42-1.59,2-2.39-1.27-1.94-2S760,406.68,760.49,406.74Z" transform="translate(-181 -359.24)"/><path class="cls-3" d="M763.65,405.77l1.89,1.13c.34.22.45.37.23.83-.23.31-1,2.35-1.57,1.89s-2.37-1.26-2-1.89S763.27,405.77,763.65,405.77Z" transform="translate(-181 -359.24)"/><path class="cls-3" d="M679.48,382.84s1.51.93,1.85,1.2.44.38.19.79-1,2.37-1.55,2-2.37-1.36-2-1.95S679,382.84,679.48,382.84Z" transform="translate(-181 -359.24)"/><path class="cls-3" d="M682.73,381.91s1.49.93,1.85,1.2.44.37.2.71-.93,2.43-1.56,2.05-2.38-1.37-2-2S682.26,381.91,682.73,381.91Z" transform="translate(-181 -359.24)"/><path class="cls-3" d="M642.49,374l1.82,1.18c.38.27.44.38.21.78s-1,2.36-1.57,1.94-2.35-1.3-1.92-1.94S642,374,642.49,374Z" transform="translate(-181 -359.24)"/><path class="cls-3" d="M645.73,373l1.79,1.22c.42.23.48.35.28.75s-1,2.41-1.58,1.93-2.38-1.24-2-1.93S645.21,373,645.73,373Z" transform="translate(-181 -359.24)"/><path class="cls-3" d="M708,381.15c-.84,0-1.48,1.51-2,2.33s-1.46,4.33-.13,5c2,1,2.66-.8,3.19-1.62a5.39,5.39,0,0,0,.7-3.16A2.37,2.37,0,0,0,708,381.15Zm.5,4.29a1.14,1.14,0,0,1-1.59.43c-.59-.17-.67-.7-.18-1.37s1-.95,1.47-.33A1,1,0,0,1,708.45,385.44Z" transform="translate(-181 -359.24)"/><path class="cls-3" d="M522.71,390.62c-.79,0-1.53,1.51-2,2.32s-1.43,4.28-.13,4.9c2.09,1,2.7-.74,3.26-1.59a5.8,5.8,0,0,0,.66-3.16A2.22,2.22,0,0,0,522.71,390.62Zm.47,4.24a1.32,1.32,0,0,1-1.62.47c-.51-.21-.64-.76-.18-1.42s1-.85,1.51-.39C522.89,393.52,523.64,394.19,523.18,394.86Z" transform="translate(-181 -359.24)"/><path class="cls-3" d="M604.94,366.45c-.82,0-1.48,1.5-1.94,2.32s-1.48,4.32-.21,5c2.09,1,2.7-.73,3.3-1.6a6.18,6.18,0,0,0,.62-3.19A2.37,2.37,0,0,0,604.94,366.45Zm.44,4.28a1.16,1.16,0,0,1-1.52.53c-.6-.2-.69-.75-.2-1.42s1-.95,1.45-.38C605.11,369.46,605.84,370.08,605.38,370.73Z" transform="translate(-181 -359.24)"/><path class="cls-3" d="M761.94,380.63c-.78,0-1.45,1.44-1.91,2.28s-1.49,4.29-.22,4.92c2.07,1.06,2.71-.76,3.26-1.58a5.42,5.42,0,0,0,.66-3.14A2.28,2.28,0,0,0,761.94,380.63Zm.5,4.25a1.38,1.38,0,0,1-1.59.49c-.58-.2-.65-.74-.18-1.44s1-.89,1.51-.38C762.18,383.55,763,384.24,762.44,384.88Z" transform="translate(-181 -359.24)"/><path class="cls-3" d="M622.71,379.43s1-2.77,2-3,5.2-.48,5.14.37-1.57,3.64-2.9,4.17a5.78,5.78,0,0,1-2.88.38s3.63-1.64,3.34-2.38S624.24,378.41,622.71,379.43Z" transform="translate(-181 -359.24)"/><path class="cls-3" d="M690.33,418.17s.89-2.76,2-2.94,5.16-.47,5.09.39-1.57,3.66-2.85,4.17a6,6,0,0,1-2.93.38s3.63-1.73,3.34-2.41S691.78,417.18,690.33,418.17Z" transform="translate(-181 -359.24)"/><path class="cls-3" d="M645.15,415s1.13-3.49,2.37-3.7,6.58-.57,6.39.46-1.94,4.68-3.56,5.2a6.82,6.82,0,0,1-3.58.5s4.52-2,4.16-3S647,413.73,645.15,415Z" transform="translate(-181 -359.24)"/><path class="cls-3" d="M497.55,417.13s.93-2.84,2-3,5.21-.44,5.14.43-1.63,3.63-2.88,4.12a5.87,5.87,0,0,1-2.9.38s3.63-1.65,3.34-2.43S499.05,416.08,497.55,417.13Z" transform="translate(-181 -359.24)"/><path class="cls-3" d="M723.67,370.06s1-3.09,2.22-3.29,5.83-.58,5.7.37-1.8,4.18-3.22,4.73a6.28,6.28,0,0,1-3.23.4s4.1-1.83,3.74-2.69S725.32,368.89,723.67,370.06Z" transform="translate(-181 -359.24)"/><path class="cls-3" d="M765.17,415.83s.71-2.06,1.46-2.18,3.9-.4,3.84.25-1.19,2.79-2.15,3.19a5,5,0,0,1-2.18.24s2.71-1.25,2.5-1.82S766.34,415.06,765.17,415.83Z" transform="translate(-181 -359.24)"/><path class="cls-3" d="M707.78,403.5s.92-2.72,1.94-2.91,5.14-.54,5.1.33-1.6,3.71-2.89,4.2a6.13,6.13,0,0,1-2.87.34s3.61-1.64,3.32-2.42S709.28,402.54,707.78,403.5Z" transform="translate(-181 -359.24)"/><path class="cls-3" d="M486.06,410.43c-1.24-.08-4.64,3.95-4.64,3.95v.05c-.14-.05-.25-.14-.49-.22-1.19-.65-1.9-.33-2.92.42s-3.46,5-1.64,2.84,2.66-1.48,4.18-.63c1.84,1.09,4.75-1.33,5.78-2.73S487.31,410.58,486.06,410.43Zm-1.12,3.62a3.72,3.72,0,0,1-2.65.58,3.33,3.33,0,0,1,2.36-1.73C485.3,412.81,485.92,413.25,484.94,414.05Z" transform="translate(-181 -359.24)"/><path class="cls-3" d="M592.4,365c-1.26-.15-4.65,3.94-4.65,3.94h0a.62.62,0,0,1-.4-.2c-1.26-.64-2-.32-3,.43s-3.46,5-1.63,2.92,2.65-1.58,4.14-.75c1.88,1.08,4.8-1.29,5.78-2.6S593.64,365.14,592.4,365Zm-1.12,3.58a3.42,3.42,0,0,1-2.6.54,3.36,3.36,0,0,1,2.31-1.72C591.61,367.38,592.29,367.91,591.28,368.61Z" transform="translate(-181 -359.24)"/><path class="cls-3" d="M464.14,397.26s-.11-1.09.53-1.09c.4,0,1.91,2.18,2.4,4.42.21,1.08.47,4.51-.58,5.18a17.76,17.76,0,0,0-.66-4.41c-.7-1.92-1.69-2.42-1.69-3.05Z" transform="translate(-181 -359.24)"/><path class="cls-3" d="M654.63,397.26s-.07-1.09.58-1.09c.39,0,1.88,2.18,2.41,4.42.23,1.08.47,4.51-.64,5.18a18.36,18.36,0,0,0-.58-4.41c-.75-1.92-1.77-2.42-1.77-3.05Z" transform="translate(-181 -359.24)"/><path class="cls-3" d="M660.2,366.27s-.09-1.08.49-1.08,2,2.13,2.46,4.39c.24,1,.47,4.49-.6,5.16a19.71,19.71,0,0,0-.59-4.39c-.75-1.9-1.76-2.44-1.76-3.08Z" transform="translate(-181 -359.24)"/><path class="cls-3" d="M767.65,365.4s-.11-1,.55-1c.38,0,1.94,2.06,2.38,4.38.29,1,.49,4.44-.56,5.1a15.69,15.69,0,0,0-.64-4.34c-.74-2-1.73-2.47-1.73-3.08Z" transform="translate(-181 -359.24)"/><path class="cls-3" d="M518.53,367.14s1.23.18,1.08,1.21-.6,2-1,1.71-2.07-.95-2.32-.19.54,1.32,1.77,1.42a6.91,6.91,0,0,0,4.28-1.34s.29,1.63-.71,2.29-6.21,3.52-6.59,3.09,0-.66.67-1.2c.67-.38.54-.76.2-.92a2.14,2.14,0,0,1-1.26-2.1,5.19,5.19,0,0,1,1.8-2.61C517.12,367.91,517.78,367.14,518.53,367.14Z" transform="translate(-181 -359.24)"/><path class="cls-3" d="M559.24,386.48s1.26.26,1.09,1.33-.56,1.85-1,1.68-2.08-1-2.31-.23.52,1.27,1.74,1.36a6.51,6.51,0,0,0,4.32-1.24s.2,1.62-.81,2.21-6.12,3.55-6.46,3.19,0-.79.6-1.26.6-.73.23-.95a2,2,0,0,1-1.27-2.07,5.64,5.64,0,0,1,1.77-2.59C557.85,387.32,558.51,386.48,559.24,386.48Z" transform="translate(-181 -359.24)"/><path class="cls-3" d="M666.38,389s1.27.15,1.1,1.28-.52,1.9-1,1.68-2.06-1-2.26-.17.46,1.27,1.73,1.38a6.39,6.39,0,0,0,4.28-1.33s.27,1.68-.72,2.3-6.2,3.53-6.6,3.12,0-.75.69-1.24.58-.77.18-1a2.07,2.07,0,0,1-1.25-2.07,5.15,5.15,0,0,1,1.83-2.58C665,389.78,665.63,389,666.38,389Z" transform="translate(-181 -359.24)"/><path class="cls-3" d="M626.23,399.81a1.19,1.19,0,0,1,1.09,1.23c0,1.12-.09,1.76-.92,1.8s-1.19.45-1.19,1.53.09,3.95-.84,4.79a19.51,19.51,0,0,1-.09-3.28C624.37,404.37,624.75,399.7,626.23,399.81Z" transform="translate(-181 -359.24)"/><path class="cls-3" d="M623.52,409.88a11.43,11.43,0,0,0-1-5.51c-1.24-2.08-1.91-2-2.37-2s-.55,1.22-.55,1.89.29,1.38,1,1.51a1.76,1.76,0,0,1,1.63,1A27.68,27.68,0,0,0,623.52,409.88Z" transform="translate(-181 -359.24)"/><path class="cls-3" d="M475.62,366.56s.88.07,1,1.28c.05,1.05-.11,1.76-.88,1.8s-1.13.42-1.13,1.55,0,3.93-.86,4.79a16,16,0,0,1-.11-3.35C473.74,371.19,474.06,366.45,475.62,366.56Z" transform="translate(-181 -359.24)"/><path class="cls-3" d="M472.91,376.66a11.28,11.28,0,0,0-1-5.47c-1.2-2.1-1.93-2.08-2.37-2.08s-.6,1.24-.49,1.9.23,1.38.93,1.44a1.77,1.77,0,0,1,1.68,1.09C472,374.34,472.47,376.33,472.91,376.66Z" transform="translate(-181 -359.24)"/><path class="cls-3" d="M685,365.48a1.18,1.18,0,0,1,1.06,1.15c.06,1.21-.1,1.85-.92,1.87s-1.17.47-1.17,1.51,0,4-.84,4.84a24,24,0,0,1-.17-3.33C683.1,370,683.48,365.37,685,365.48Z" transform="translate(-181 -359.24)"/><path class="cls-3" d="M682.26,375.58a11.18,11.18,0,0,0-1-5.57c-1.2-2.06-1.9-2-2.3-2s-.62,1.21-.56,1.94.23,1.34,1,1.37a1.94,1.94,0,0,1,1.68,1.13C681.37,373.21,681.86,375.2,682.26,375.58Z" transform="translate(-181 -359.24)"/><path class="cls-3" d="M455.88,417.19s-1.16,3.91-3.19,3.5-2-4.22.26-6.52a6,6,0,0,0-.58,2.58c.12,1.31.81,1.86,1.63,1.51C455,417.88,455.28,417.09,455.88,417.19Z" transform="translate(-181 -359.24)"/><path class="cls-3" d="M636.45,416.08s-1.16,3.91-3.18,3.48-2-4.15.25-6.48a5.79,5.79,0,0,0-.58,2.59c.16,1.26.85,1.8,1.64,1.51C635.62,416.75,635.87,416,636.45,416.08Z" transform="translate(-181 -359.24)"/><path class="cls-3" d="M545.62,368.48s-1.09,3.91-3.17,3.48-2-4.23.24-6.48a6.41,6.41,0,0,0-.57,2.54c.1,1.3.84,1.85,1.61,1.51C544.8,369.11,545,368.29,545.62,368.48Z" transform="translate(-181 -359.24)"/><path class="cls-3" d="M506.85,381.75s-1.15,3.86-3.24,3.46-2-4.21.29-6.5a7.18,7.18,0,0,0-.58,2.61c.19,1.34.84,1.88,1.67,1.47C506,382.46,506.22,381.64,506.85,381.75Z" transform="translate(-181 -359.24)"/><path class="cls-3" d="M468.09,382.84s-1.19,3.9-3.22,3.5-2-4.21.26-6.5a6.12,6.12,0,0,0-.55,2.62c.15,1.24.78,1.84,1.62,1.47C467.28,383.53,467.47,382.74,468.09,382.84Z" transform="translate(-181 -359.24)"/><path class="cls-3" d="M802.1,417.47s-1.16,3.94-3.19,3.49-2-4.21.17-6.48a6.44,6.44,0,0,0-.49,2.61c.11,1.17.83,1.81,1.63,1.44C801.23,418.15,801.46,417.36,802.1,417.47Z" transform="translate(-181 -359.24)"/><path class="cls-3" d="M797.09,385.87s-1.15,3.91-3.19,3.54-2-4.24.25-6.57a5.76,5.76,0,0,0-.54,2.63c.08,1.27.83,1.85,1.62,1.53C796.23,386.57,796.45,385.85,797.09,385.87Z" transform="translate(-181 -359.24)"/><path class="cls-3" d="M612.91,415.62a7.29,7.29,0,0,1-4.55,4.17c-2.78.85-3.08-2.12-2-3.71,1.37-1.87,2.06-2.73.65-2.83a4.85,4.85,0,0,0-2,.1s1.2-1.91,2.21-1.85,2,.69,2,1.51c0,1.53-2.55,3.35-2.2,4.18s1.41.87,2.87.28A9.81,9.81,0,0,0,612.91,415.62Z" transform="translate(-181 -359.24)"/><path class="cls-3" d="M713.18,366.34s.42,0,.17.53a5.74,5.74,0,0,1-1.46,2.28c-.44.43-.95.27-1.46.43-.82.29-1.29,1.15-2,1.36-1.34.49-2.26-.43-4.09.93s-6.29,7.56-9.19,6.81a16.37,16.37,0,0,0,4.2-3c2.17-2.22,5.57-6,6.82-6.54,1.85-.8,1.76-.06,2.6-.29a3.48,3.48,0,0,0,2.15-2s.11.56.44.6c.66.17,1,.08,1.42-.69A1.08,1.08,0,0,1,713.18,366.34Z" transform="translate(-181 -359.24)"/><path class="cls-3" d="M769.45,403S770,401,771,400.51s7.91-4.11,8.67-4.61c0,0-.53,2.2-1.31,2.45S770.2,402.43,769.45,403Z" transform="translate(-181 -359.24)"/><path class="cls-3" d="M726.22,394.62s.61-1.9,1.57-2.39,10.4-5,11.16-5.49c0,0-.76,2-1.49,2.21S727,394.14,726.22,394.62Z" transform="translate(-181 -359.24)"/><path class="cls-3" d="M634.86,372.24s.52-2,1.54-2.44,10.38-5,11.12-5.45c0,0-.74,1.94-1.44,2.16S635.62,371.69,634.86,372.24Z" transform="translate(-181 -359.24)"/><path class="cls-3" d="M683,413.77s.59-1.95,1.57-2.44,8.7-4.14,9.51-4.59c0,0-.81,1.91-1.51,2.18S683.8,413.24,683,413.77Z" transform="translate(-181 -359.24)"/><path class="cls-3" d="M536,416.23s.57-1.94,1.57-2.41,8.72-4.15,9.48-4.66c0,0-.76,2-1.48,2.28S536.74,415.74,536,416.23Z" transform="translate(-181 -359.24)"/><path class="cls-3" d="M494.44,373s.61-1.92,1.57-2.42,8.72-4.16,9.51-4.6c0,0-.79,1.94-1.51,2.18S495.19,372.52,494.44,373Z" transform="translate(-181 -359.24)"/><path class="cls-3" d="M472.87,393s.58-1.91,1.54-2.4,8.72-4.17,9.47-4.65c0,0-.75,2-1.49,2.26S473.63,392.46,472.87,393Z" transform="translate(-181 -359.24)"/><path class="cls-3" d="M747.85,421.21s.59-1.93,1.53-2.4,10.39-4.93,11.18-5.46c0,0-.79,2-1.55,2.21S748.63,420.75,747.85,421.21Z" transform="translate(-181 -359.24)"/><path class="cls-3" d="M795.34,368c-.11-.06-.24-.1-.38-.17.56-2.08.12-3.57-.6-3.87-.9-.25-2.07,1.79-2.41,2.66s.34,1.47,1.28,1.85a7.08,7.08,0,0,0,.67.29,2.85,2.85,0,0,1-.44.76c-.87,1.24-6.07,5.69-6.07,5.69a13,13,0,0,0,6.82-5.69,4.64,4.64,0,0,1,.23-.44c.81.51,1.54,1,1.54,1A1.59,1.59,0,0,0,795.34,368Zm-2.3-1.67c-.22-.4.57-.76,1-.29a1.66,1.66,0,0,1,.24,1.33A4.53,4.53,0,0,1,793,366.34Z" transform="translate(-181 -359.24)"/><path class="cls-3" d="M594.27,383.76a1.88,1.88,0,0,1-.38-.21c.61-1.94.12-3.48-.56-3.71-.93-.34-2.05,1.77-2.46,2.62s.41,1.41,1.29,1.84a1.71,1.71,0,0,1,.71.27,6.32,6.32,0,0,1-.47.75c-.86,1.25-6.08,5.68-6.08,5.68a12.67,12.67,0,0,0,6.82-5.68c.08-.15.15-.26.26-.44.8.49,1.51,1,1.51,1A1.65,1.65,0,0,0,594.27,383.76ZM592,382.08c-.22-.39.53-.74,1-.26a2.08,2.08,0,0,1,.2,1.29A3.75,3.75,0,0,1,592,382.08Z" transform="translate(-181 -359.24)"/><path class="cls-3" d="M567.66,372.16a1,1,0,0,1-.41-.2c.66-2,.17-3.51-.55-3.77s-2,1.76-2.44,2.58.41,1.47,1.31,1.86a2.16,2.16,0,0,1,.67.31,6.32,6.32,0,0,1-.38.81c-.9,1.18-6.11,5.62-6.11,5.62,1.68-.37,5.07-2.6,6.8-5.62a2.44,2.44,0,0,1,.24-.54c.77.55,1.56,1,1.56,1A1.6,1.6,0,0,0,567.66,372.16Zm-2.24-1.65c-.24-.45.53-.82,1-.27a2.46,2.46,0,0,1,.21,1.28A4.89,4.89,0,0,1,565.42,370.51Z" transform="translate(-181 -359.24)"/><path class="cls-5" d="M449.71,436.38v-2.32c4.05.09,7.74.2,11.19.2s7-.11,10.35-.2v2.32a22.19,22.19,0,0,0-5.27.41,1.85,1.85,0,0,0-1.25.86c-.37.49-.56,1.66-.59,3.54-.05.52-.09,4-.16,10.55v13.55c0,5.27.34,8.78,1,10.4a9.2,9.2,0,0,0,3.25,4.16,11.88,11.88,0,0,0,4.55,2,24.38,24.38,0,0,0,6.38.76,24,24,0,0,0,7.35-1,13,13,0,0,0,4.77-2.49,9.53,9.53,0,0,0,2.38-3.25,15.54,15.54,0,0,0,1.13-4.94,63.2,63.2,0,0,0,.38-8V451.74c0-3.44-.07-6.69-.18-9.88a11.19,11.19,0,0,0-.48-4.09,2.14,2.14,0,0,0-1.4-1c-.59-.27-2.36-.35-5.29-.41v-2.32c4.09.09,7,.2,8.88.2,1.68,0,4.69-.11,9.13-.2v2.32a22.32,22.32,0,0,0-5.3.41,1.8,1.8,0,0,0-1.23.86c-.38.49-.57,1.62-.6,3.54,0,.52,0,4-.12,10.44V464c0,6.05-.44,10.25-1.3,12.67a14.35,14.35,0,0,1-4.59,6.35,18.5,18.5,0,0,1-6.6,3.22,33.83,33.83,0,0,1-8.84,1.12,31.89,31.89,0,0,1-9.84-1.32,16.44,16.44,0,0,1-6.32-3.53,12.71,12.71,0,0,1-3-4.46c-.68-2-1-5.42-1-10.15V451.63c0-3.33,0-6.58-.1-9.77a11.81,11.81,0,0,0-.54-4.09,2.3,2.3,0,0,0-1.4-1C454.41,436.52,452.69,436.44,449.71,436.38Z" transform="translate(-181 -359.24)"/><path class="cls-5" d="M509,486.34v-1.89a14.72,14.72,0,0,0,4.12-.41,1.6,1.6,0,0,0,.53-.63,10.78,10.78,0,0,0,.46-3.05c.12-2.6.15-4.86.15-6.74V449.68a2.8,2.8,0,0,0-.15-1.27,5.19,5.19,0,0,0-1.06-1.28,2.76,2.76,0,0,0-1.2-.62,19.79,19.79,0,0,0-3.12-.14v-1.88c3.38.16,5.56.24,6.43.24a41.33,41.33,0,0,0,4.42-.24c1.64,2.17,2.82,3.79,3.64,4.83l6,7.49L538,467.52c2.78,3.38,5.07,6.08,6.8,8.06a38.84,38.84,0,0,0,2.7,3.05V457.17c0-2,0-4.18-.2-6.81a10.34,10.34,0,0,0-.35-3,1.28,1.28,0,0,0-.63-.54,11.94,11.94,0,0,0-4.1-.44v-1.88c2.36.16,4.68.24,7,.24s4.23-.08,6.07-.24v1.88a11.73,11.73,0,0,0-4,.44,1.15,1.15,0,0,0-.57.54,12.35,12.35,0,0,0-.41,3.12c-.11,2.58-.15,4.85-.15,6.7v14.15c0,2.86,0,8.2.15,16l-3-.86-.75-.15c-.12,0-.18-.11-.27-.15a6.44,6.44,0,0,1-1.13-1.22c-1.66-1.85-2.84-3.27-3.63-4.2l-3.79-4.87-20.82-25.26v22.87c0,1.89,0,4.25.11,6.85a11.87,11.87,0,0,0,.39,3.05,1.33,1.33,0,0,0,.63.63,14.65,14.65,0,0,0,4.1.41v1.89c-1.78-.15-3.66-.23-5.74-.23C514.07,486.11,511.64,486.19,509,486.34Z" transform="translate(-181 -359.24)"/><path class="cls-5" d="M576.17,484.45v1.89c-4.17-.15-6.89-.23-8.26-.23l-9.07.23v-1.89a18.37,18.37,0,0,0,4.26-.32,1.58,1.58,0,0,0,1-.7,8.37,8.37,0,0,0,.41-2.85c.05-.36.09-3.15.17-8.36V458.61c0-2.66-.05-5.33-.17-7.88a10,10,0,0,0-.41-3.31,1.76,1.76,0,0,0-1-.72,17,17,0,0,0-4.26-.33v-1.88c3.71.16,6.63.24,8.64.24s4.92-.08,8.69-.24v1.88a16.25,16.25,0,0,0-4.23.33,2.1,2.1,0,0,0-1,.65,7.49,7.49,0,0,0-.47,2.88c0,.39-.07,3.19-.16,8.38v13.61c0,2.66.05,5.3.09,7.8a11.79,11.79,0,0,0,.42,3.35,1.66,1.66,0,0,0,1.16.76A17.25,17.25,0,0,0,576.17,484.45Z" transform="translate(-181 -359.24)"/><path class="cls-5" d="M598,486.65c-.57-1.68-1.8-5-3.63-9.93l-10-24.8c-1.07-2.56-1.69-4.11-2-4.57a1.58,1.58,0,0,0-.7-.51,13,13,0,0,0-3.26-.47v-1.88c3.52.16,6.16.24,7.85.24q2.31,0,8.06-.24v1.88a39.6,39.6,0,0,0-4.15.14,1.81,1.81,0,0,0-.78.33c-.11.21-.26.36-.26.58a5.57,5.57,0,0,0,.46,1.59c.82,2.74,1.55,4.85,2.2,6.48L601,478.8l7.68-19.31c1.13-2.79,2.18-5.82,3.22-9.13a14.08,14.08,0,0,0,.64-2.55.9.9,0,0,0-.76-1,39.17,39.17,0,0,0-4.57-.47v-1.88c3,.16,5.21.24,6.66.24s3.68-.08,6.38-.24v1.88a9.54,9.54,0,0,0-2.7.29,1.94,1.94,0,0,0-.81.82c-.18.32-.91,1.91-2.15,4.79l-9.22,22.61-2.26,5.83c-.44,1.16-.84,2.09-1.15,3.05-.27.76-.62,1.74-1,2.89Z" transform="translate(-181 -359.24)"/><path class="cls-5" d="M623.35,486.34v-1.89a14,14,0,0,0,4-.41,1.13,1.13,0,0,0,.58-.63,10.33,10.33,0,0,0,.41-3.05c.14-2.6.19-4.86.19-6.74V458.53c0-2.58,0-5.25-.14-7.8a9.55,9.55,0,0,0-.4-3.31,1.94,1.94,0,0,0-1.1-.72,16.23,16.23,0,0,0-4.21-.33v-1.88l8.38.2,8.92-.2c4.22-.13,7.38-.13,9.28-.13a39.64,39.64,0,0,1,5.5.37c-.27,1.13-.47,2.11-.62,2.95-.06.13-.18,2.19-.58,6.07h-1.82a40.34,40.34,0,0,0-.38-5.52,15.87,15.87,0,0,0-3.59-.92,57.18,57.18,0,0,0-6.66-.37H638c-1.58.13-2.77.22-3.49.25-.06,2.23-.15,4.27-.19,6.15l-.11,10c2.29.14,4.43.18,6.36.18a41.56,41.56,0,0,0,6-.29,2.07,2.07,0,0,0,1.22-.39,9.47,9.47,0,0,0,.49-2.42l.14-2.16h1.83v.61L650,465l.17,6.82h-2l-.09-2a6.08,6.08,0,0,0-.4-2.66,1.93,1.93,0,0,0-1.28-.76,49.35,49.35,0,0,0-6.62-.35c-1.33,0-3.17.06-5.65.24-.11,2-.15,4.86-.15,8.71,0,3.66,0,6.36.15,8.27,2.81.21,6,.27,9.57.27a48.46,48.46,0,0,0,5.36-.18,17.41,17.41,0,0,0,3-.84c.2-.58.44-1.41.7-2.43a34.43,34.43,0,0,0,.81-4h2a77.59,77.59,0,0,0-.81,9.92,39.41,39.41,0,0,1-6.12.38L631,486.11Z" transform="translate(-181 -359.24)"/><path class="cls-5" d="M659.45,446.37v-1.88c.78,0,1.91,0,3.48.09l5.72.15c1.09,0,2.81,0,5.21-.15,3-.09,4.75-.22,5.29-.22a24.52,24.52,0,0,1,8.18,1,7.91,7.91,0,0,1,4,3.22,9.27,9.27,0,0,1,1.42,5,10.1,10.1,0,0,1-1.33,4.88,10.88,10.88,0,0,1-3.82,4.11,18.8,18.8,0,0,1-6.51,2.49c.47.67,1.63,2.24,3.45,4.63l7.43,9.7c2.06,2.81,3.25,4.28,3.63,4.66a2.7,2.7,0,0,0,.55.26,5.88,5.88,0,0,0,1.93.15v1.89a38.48,38.48,0,0,0-3.85-.23c-1.18,0-2.58.08-4.26.23-1.26-1.49-3.34-4.36-6.38-8.62-1.68-2.37-3.19-4.4-4.41-6-2.08-2.64-4.05-5-5.89-7.2l.24-.81c1,0,1.8,0,2.34,0q5.24,0,8-2.53a8.66,8.66,0,0,0,2.78-6.69,7.48,7.48,0,0,0-2.35-5.75c-1.56-1.46-4-2.11-7.18-2.11a16,16,0,0,0-5.84,1c-.14,1-.16,2-.2,2.94-.08.25-.14,3.09-.25,8.55v13.05c0,2.66.07,5.3.17,7.8a10,10,0,0,0,.38,3.35,1.68,1.68,0,0,0,1.09.76,18.55,18.55,0,0,0,4.3.32v1.89c-2.84-.15-5.39-.23-7.78-.23-1.88,0-5.07.08-9.53.23v-1.89a18,18,0,0,0,4.23-.32,1.51,1.51,0,0,0,1.07-.7,7.05,7.05,0,0,0,.44-2.85c.06-.36.06-3.15.16-8.36V458.61c0-2.66,0-5.33-.16-7.88a8.47,8.47,0,0,0-.44-3.31,1.66,1.66,0,0,0-1.07-.72A16.72,16.72,0,0,0,659.45,446.37Z" transform="translate(-181 -359.24)"/><path class="cls-5" d="M700,484.92a80.32,80.32,0,0,0,.58-9.17h1.94a23.19,23.19,0,0,0,.47,5,4.22,4.22,0,0,0,1.62,1.65,21.21,21.21,0,0,0,3.5,1.62,15.9,15.9,0,0,0,4.21.66,10.82,10.82,0,0,0,5.53-1.41,9.32,9.32,0,0,0,3.66-3.57,10.37,10.37,0,0,0,1.11-4.75,9.65,9.65,0,0,0-.53-3.39,5.39,5.39,0,0,0-1.8-2.19,6.51,6.51,0,0,0-2.87-1.26c-.72-.11-2.2-.31-4.37-.58s-4-.64-5.54-.93a12.32,12.32,0,0,1-4.52-2.2,9.38,9.38,0,0,1-2.3-3.29,10.59,10.59,0,0,1-.87-4.43,12.74,12.74,0,0,1,1.75-6.55,12.06,12.06,0,0,1,5.36-4.76,17.37,17.37,0,0,1,7.74-1.68,24.61,24.61,0,0,1,5.4.65,27,27,0,0,1,5.56,1.94,29,29,0,0,0-.58,3.46c-.06,1.05-.18,2.62-.21,4.65h-2a32.75,32.75,0,0,0-.29-4.92,8,8,0,0,0-2-1.89,13.42,13.42,0,0,0-6.43-1.74,9,9,0,0,0-9.42,9.35,7.16,7.16,0,0,0,1,3.84,6.05,6.05,0,0,0,3.22,2.17,28.84,28.84,0,0,0,5.31,1.08c2.46.34,4.68.64,6.63,1.05a12.54,12.54,0,0,1,4.07,1.94,7.34,7.34,0,0,1,2.16,3,9.71,9.71,0,0,1,.86,4.32,13.13,13.13,0,0,1-4.85,10.18c-3.22,2.92-7.39,4.35-12.56,4.35A24.21,24.21,0,0,1,700,484.92Z" transform="translate(-181 -359.24)"/><path class="cls-5" d="M748.81,484.45v1.89c-4.13-.15-6.94-.23-8.26-.23l-9.11.23v-1.89a17.75,17.75,0,0,0,4.24-.32,1.49,1.49,0,0,0,1.09-.7,8.46,8.46,0,0,0,.46-2.85c0-.36.07-3.15.1-8.36V458.61c0-2.66,0-5.33-.1-7.88a10,10,0,0,0-.46-3.31,1.74,1.74,0,0,0-1.09-.72,16.47,16.47,0,0,0-4.24-.33v-1.88c3.8.16,6.67.24,8.7.24s4.9-.08,8.67-.24v1.88a17.44,17.44,0,0,0-4.27.33,1.84,1.84,0,0,0-1,.65,8.75,8.75,0,0,0-.43,2.88c0,.39-.06,3.19-.15,8.38v13.61c0,2.66,0,5.3.09,7.8a10,10,0,0,0,.4,3.35,1.63,1.63,0,0,0,1.1.76A18.21,18.21,0,0,0,748.81,484.45Z" transform="translate(-181 -359.24)"/><path class="cls-5" d="M753.85,454.17H752c0-4.68-.15-7.87-.29-9.68q3.12.13,10,.33c3.76.11,6.23.16,7.47.16s4.4-.11,9.28-.25c3.47,0,6.07-.15,7.68-.24-.29,2.21-.4,5.4-.51,9.68h-1.83l-.31-2.77a25.85,25.85,0,0,0-.3-2.9A1,1,0,0,0,783,448a.84.84,0,0,0-.49-.19,26,26,0,0,0-3-.26c-1.69-.12-3-.19-4-.19h-3.61c-.17,2-.26,4.45-.26,7.62v17.25c0,2.66,0,5.3.12,7.8a10.21,10.21,0,0,0,.41,3.35,1.51,1.51,0,0,0,1.07.76,17.83,17.83,0,0,0,4.23.32v1.89c-3.53-.11-6.12-.15-7.89-.15-.78,0-3.84,0-9.19.15v-1.89a18.25,18.25,0,0,0,4.25-.32,1.43,1.43,0,0,0,1-.7,8.55,8.55,0,0,0,.45-2.85c0-.36.06-3.15.12-8.36V455.08c0-.86,0-1.73,0-2.7l-.11-5h-4.39a47.3,47.3,0,0,0-6,.33c-.46.07-.81.18-.91.38a10.43,10.43,0,0,0-.58,3.22Z" transform="translate(-181 -359.24)"/><path class="cls-5" d="M806.08,484.45v1.89c-4.13-.15-6.91-.23-8.24-.23l-9.12.23v-1.89a17.66,17.66,0,0,0,4.25-.32,1.58,1.58,0,0,0,1.07-.7,7.11,7.11,0,0,0,.43-2.85c0-.36.08-3.15.18-8.36V458.61c0-2.66-.06-5.33-.18-7.88a8.55,8.55,0,0,0-.43-3.31,1.74,1.74,0,0,0-1.07-.72,16.4,16.4,0,0,0-4.25-.33v-1.88c3.76.16,6.68.24,8.72.24s4.88-.08,8.64-.24v1.88a16.37,16.37,0,0,0-4.23.33,1.66,1.66,0,0,0-1,.65,8.06,8.06,0,0,0-.45,2.88c0,.39-.09,3.19-.1,8.38v13.61c0,2.66,0,5.3,0,7.8a10,10,0,0,0,.45,3.35,1.55,1.55,0,0,0,1.08.76A18.28,18.28,0,0,0,806.08,484.45Z" transform="translate(-181 -359.24)"/><path class="cls-5" d="M452.53,514.17h-2.16c0-5.42-.12-9.22-.28-11.31,2.44.07,6.38.22,11.74.33,4.32.14,7.25.18,8.67.18s5.13-.14,10.9-.27c4.11-.06,7.09-.17,9-.24-.29,2.49-.45,6.34-.51,11.31h-2.22l-.26-3.28c-.22-2-.38-3.13-.43-3.42a2,2,0,0,0-.26-.55,1.35,1.35,0,0,0-.61-.26c-.28-.06-1.45-.17-3.44-.28s-3.59-.18-4.68-.18h-4.25c-.22,2.18-.29,5.15-.29,8.92v20.07c0,3.16.07,6.18.16,9.14a11.24,11.24,0,0,0,.48,3.84,2.22,2.22,0,0,0,1.27,1,22.73,22.73,0,0,0,5,.34v2.18c-4.17-.08-7.29-.15-9.31-.15-.87,0-4.47.07-10.76.15v-2.18a23.78,23.78,0,0,0,5-.34,2.14,2.14,0,0,0,1.21-.85c.33-.43.47-1.56.55-3.31,0-.51,0-3.75.14-9.79v-20c0-1,0-2,0-3.17L467,506.2h-5.18a63.22,63.22,0,0,0-7,.34,1.55,1.55,0,0,0-1.06.42,12,12,0,0,0-.71,3.74Z" transform="translate(-181 -359.24)"/><path class="cls-5" d="M493.8,551.66v-1.88a13.76,13.76,0,0,0,4.1-.47,1.28,1.28,0,0,0,.58-.55,12.2,12.2,0,0,0,.4-3.15c.15-2.59.17-4.77.17-6.64V523.91c0-2.69,0-5.25-.15-7.83a8.13,8.13,0,0,0-.42-3.3,2,2,0,0,0-1.07-.79,21.32,21.32,0,0,0-4.22-.31V509.8l8.38.16,8.91-.12c4.26,0,7.38-.13,9.28-.13a43.41,43.41,0,0,1,5.54.35c-.33,1.13-.5,2.08-.67,2.9,0,.16-.15,2.25-.52,6.12h-1.86a34.56,34.56,0,0,0-.33-5.43,12.71,12.71,0,0,0-3.68-1,50.78,50.78,0,0,0-6.6-.43c-.47,0-1.51.06-3.17.14a32.64,32.64,0,0,0-3.48.18c-.11,2.17-.16,4.24-.2,6.11l-.13,10c2.24.19,4.45.26,6.33.26a42.4,42.4,0,0,0,6-.32c.64-.11,1-.24,1.17-.49a5.22,5.22,0,0,0,.49-2.39l.17-2.05h1.83v.53l-.16,6.08.16,6.87h-1.95l-.1-2a5.69,5.69,0,0,0-.44-2.75,2.09,2.09,0,0,0-1.28-.75,42.35,42.35,0,0,0-6.6-.31c-1.31,0-3.2.09-5.65.24-.12,1.94-.12,4.81-.12,8.7,0,3.6,0,6.41.12,8.21,2.88.26,6.07.35,9.59.35a43,43,0,0,0,5.36-.24,13.29,13.29,0,0,0,2.95-.8,16,16,0,0,0,.7-2.49c.44-1.74.72-3.05.85-4h2a79.76,79.76,0,0,0-.78,9.85,36.91,36.91,0,0,1-6.15.44l-17.62-.21C501.31,551.45,498.71,551.51,493.8,551.66Z" transform="translate(-181 -359.24)"/><path class="cls-5" d="M547.36,549.78v1.88l-8.94-.21c-.65,0-3.41.06-8.42.21v-1.88a19.72,19.72,0,0,0,4.25-.3,2.13,2.13,0,0,0,1.08-.72,7.6,7.6,0,0,0,.4-2.85c.09-.4.09-3.18.17-8.36V523.91c0-2.69,0-5.25-.17-7.83a9,9,0,0,0-.4-3.3,2.33,2.33,0,0,0-1.08-.79,21.73,21.73,0,0,0-4.25-.31V509.8c3.85.16,6.8.26,8.81.26s4.88-.1,8.55-.26v1.88a21.45,21.45,0,0,0-4.23.31,1.75,1.75,0,0,0-1,.73,5.82,5.82,0,0,0-.47,2.87c0,.38,0,3.13-.18,8.32V530a19,19,0,0,0,3.79-3l3.72-3.6,6.61-6.72c2.5-2.52,4-4.21,4.69-5V509.8c2.27.16,4.16.26,5.47.26s3-.1,4.61-.26v1.88a14.44,14.44,0,0,0-3.75.25,5,5,0,0,0-1.89.93,59.17,59.17,0,0,0-5.82,4.94l-11.78,10.78,17.7,16.47a57.8,57.8,0,0,0,4.83,4.33,4.83,4.83,0,0,0,2.32.4v1.88c-1.94-.15-3.21-.21-3.89-.21s-2.22.06-4.57.21c-.47-.46-2.14-2-4.91-4.73L555.54,544l-13.37-12.52-.7.4v5.67c0,2.66,0,5.34.18,7.85a7.82,7.82,0,0,0,.4,3.28,2.07,2.07,0,0,0,1.08.8A19.48,19.48,0,0,0,547.36,549.78Z" transform="translate(-181 -359.24)"/><path class="cls-5" d="M574,551.66v-1.88a13.52,13.52,0,0,0,4.09-.47,1.42,1.42,0,0,0,.64-.55,11.5,11.5,0,0,0,.44-3.15c0-2.48.11-4.77.11-6.64V515a2.51,2.51,0,0,0-1.19-2.52,2.52,2.52,0,0,0-1.22-.58,15.34,15.34,0,0,0-3.07-.17V509.8c3.4.16,5.51.26,6.37.26a40.53,40.53,0,0,0,4.43-.26c1.66,2.19,2.88,3.85,3.65,4.83l6.05,7.54,8.75,10.69c2.79,3.41,5.1,6.11,6.78,8.07,1.08,1.3,2,2.27,2.74,3V522.49c0-1.91-.09-4.21-.15-6.78a9.88,9.88,0,0,0-.42-3,1,1,0,0,0-.62-.58,12.2,12.2,0,0,0-4.07-.46V509.8c2.32.16,4.64.26,7,.26s4.27-.1,6.09-.26v1.88a11.69,11.69,0,0,0-4,.46,1.22,1.22,0,0,0-.65.58,10.91,10.91,0,0,0-.4,3.13c-.08,2.55-.14,4.78-.14,6.64v14.17c0,2.91.06,8.21.14,16l-3-.91-.69-.13c-.18,0-.24,0-.32-.15a10.26,10.26,0,0,1-1.14-1.22c-1.59-1.84-2.82-3.3-3.62-4.23l-3.76-4.83L582,516v22.8c0,1.94.06,4.2.13,6.9a12.4,12.4,0,0,0,.4,3,1.25,1.25,0,0,0,.64.6,16.43,16.43,0,0,0,4.08.42v1.88c-1.73-.15-3.64-.21-5.71-.21C579.22,551.45,576.72,551.51,574,551.66Z" transform="translate(-181 -359.24)"/><path class="cls-5" d="M623.93,531.08a24.6,24.6,0,0,1,1.41-8.62,18,18,0,0,1,4.63-7.07,20.7,20.7,0,0,1,7.38-4.73,24.14,24.14,0,0,1,9.31-1.66,26.79,26.79,0,0,1,8.87,1.42,19.9,19.9,0,0,1,6.53,3.58,19.08,19.08,0,0,1,4.05,5,19.88,19.88,0,0,1,1.74,4.69,24.41,24.41,0,0,1,.67,5.75,22,22,0,0,1-6.67,16.51c-4.43,4.42-10.08,6.62-16.87,6.62A24.38,24.38,0,0,1,636.4,551a18.32,18.32,0,0,1-6.87-4.4,20.21,20.21,0,0,1-4.16-7.19A25.35,25.35,0,0,1,623.93,531.08Zm6.11-2.44a29.14,29.14,0,0,0,.58,5.65,23.89,23.89,0,0,0,1.43,5,16.61,16.61,0,0,0,3.68,5.93,15,15,0,0,0,5.1,3.55,16.47,16.47,0,0,0,6.24,1.11,14.51,14.51,0,0,0,8.23-2.3,13.5,13.5,0,0,0,5.2-6.52,24.47,24.47,0,0,0,1.73-9.65,29.37,29.37,0,0,0-1.19-8.65,19.12,19.12,0,0,0-2-4.35,16.42,16.42,0,0,0-3-3.45,13.88,13.88,0,0,0-4.54-2.38,16.58,16.58,0,0,0-6.07-1.07,15.53,15.53,0,0,0-8.15,2.15,12.87,12.87,0,0,0-5.39,6A21.89,21.89,0,0,0,630,528.64Z" transform="translate(-181 -359.24)"/><path class="cls-5" d="M673.68,551.66v-1.54a8.78,8.78,0,0,0,2.29-1.36,3.8,3.8,0,0,0,.47-.71,21,21,0,0,0,.32-3.53c.06-2.71.14-4.23.14-4.8V523.91c0-2.69-.08-5.34-.14-7.83a9.26,9.26,0,0,0-.44-3.3,2,2,0,0,0-1.11-.79,20.62,20.62,0,0,0-4.22-.31V509.8c4.81.16,7.8.26,9,.26s4-.1,8.44-.26v1.88a22.1,22.1,0,0,0-4.27.31,2.25,2.25,0,0,0-1.07.73,8.92,8.92,0,0,0-.38,2.84c-.06.35-.06,3.12-.17,8.35v19.75a46,46,0,0,0,.17,5c2.2.2,4.43.28,6.62.28,5.55,0,9.36-.43,11.62-1.12a15.54,15.54,0,0,0,.69-2l1.14-4.84h2c-.39,2.93-.82,6.38-1.23,10.26a14.25,14.25,0,0,1-1.92.36c-1,0-2.58.08-4.71.08l-17.41-.21C677.54,551.45,675.63,551.51,673.68,551.66Z" transform="translate(-181 -359.24)"/><path class="cls-5" d="M708.15,531.08a24.37,24.37,0,0,1,1.46-8.62,18.09,18.09,0,0,1,4.61-7.07,21.68,21.68,0,0,1,7.35-4.73A24.65,24.65,0,0,1,731,509a26.9,26.9,0,0,1,8.81,1.42,19.74,19.74,0,0,1,6.5,3.58,19.34,19.34,0,0,1,4.06,5,16.59,16.59,0,0,1,1.74,4.69,20.47,20.47,0,0,1,.75,5.75,22.29,22.29,0,0,1-6.72,16.51c-4.43,4.42-10.07,6.62-16.87,6.62a24.36,24.36,0,0,1-8.59-1.54,17.48,17.48,0,0,1-6.81-4.4,20.2,20.2,0,0,1-4.23-7.19A25.39,25.39,0,0,1,708.15,531.08Zm6.13-2.44a33.64,33.64,0,0,0,.58,5.65,25.2,25.2,0,0,0,1.42,5,17.34,17.34,0,0,0,3.68,5.93,15.4,15.4,0,0,0,5.12,3.55,16.25,16.25,0,0,0,6.22,1.11,14.23,14.23,0,0,0,8.23-2.3,14.43,14.43,0,0,0,5.28-6.52,26.2,26.2,0,0,0,1.73-9.65,32.25,32.25,0,0,0-1.24-8.65,17.29,17.29,0,0,0-2.08-4.35,13.69,13.69,0,0,0-3.05-3.45,12.7,12.7,0,0,0-4.53-2.38,16.26,16.26,0,0,0-6-1.07,15.87,15.87,0,0,0-8.21,2.15,12.86,12.86,0,0,0-5.33,6A21.42,21.42,0,0,0,714.28,528.64Z" transform="translate(-181 -359.24)"/><path class="cls-5" d="M796.21,549.36a62,62,0,0,1-7.39,2.22,54.58,54.58,0,0,1-9.57.95,26.7,26.7,0,0,1-12.13-2.66,19.71,19.71,0,0,1-8.17-7.44,21.21,21.21,0,0,1-2.86-11.35,20.7,20.7,0,0,1,2-9.75,21.06,21.06,0,0,1,5.21-6.59,21.71,21.71,0,0,1,6.21-3.85A32.44,32.44,0,0,1,781.27,509a34.65,34.65,0,0,1,6.88.8c2.36.45,5.08,1.13,8.08,1.9-.25,1.08-.47,2.06-.65,3s-.33,3-.58,6h-1.83l-.13-3.42A6.64,6.64,0,0,0,793,516a4.84,4.84,0,0,0-.33-1.21,9.05,9.05,0,0,0-2.55-1.91,34.92,34.92,0,0,0-5-1.55,26,26,0,0,0-4.65-.41,18.59,18.59,0,0,0-9.65,2.42,15.34,15.34,0,0,0-6.3,6.83,23.8,23.8,0,0,0-2,9.72,22,22,0,0,0,2.46,10.41,17.57,17.57,0,0,0,6.58,7.11,19.2,19.2,0,0,0,9.71,2.44,23.7,23.7,0,0,0,5-.51,19.19,19.19,0,0,0,4.12-1.33,24.45,24.45,0,0,0,.25-3.8V541a8.38,8.38,0,0,0-.29-3,2,2,0,0,0-1.45-.69,37.65,37.65,0,0,0-5.35-.29v-1.91l9.19.26c1.78,0,3.61-.12,5.46-.26l.18,1.42-2.09,1.3a45.68,45.68,0,0,0-.41,5.82A43.69,43.69,0,0,0,796.21,549.36Z" transform="translate(-181 -359.24)"/><path class="cls-5" d="M819,549.78v1.88c-4.21-.15-7-.21-8.29-.21l-9.13.21v-1.88a19.77,19.77,0,0,0,4.26-.3,1.42,1.42,0,0,0,1-.72,5.64,5.64,0,0,0,.54-2.85c0-.4,0-3.18.11-8.36V523.91c0-2.69,0-5.25-.11-7.83a9.76,9.76,0,0,0-.42-3.3,2.22,2.22,0,0,0-1.15-.79,20.88,20.88,0,0,0-4.22-.31V509.8c3.79.16,6.66.26,8.72.26s4.85-.1,8.7-.26v1.88a22,22,0,0,0-4.3.31,1.88,1.88,0,0,0-1.06.73,7.47,7.47,0,0,0-.38,2.87c0,.38-.09,3.13-.2,8.32v13.64c0,2.66.05,5.34.11,7.85a9.58,9.58,0,0,0,.4,3.28,2.24,2.24,0,0,0,1.11.8A20.37,20.37,0,0,0,819,549.78Z" transform="translate(-181 -359.24)"/><path class="cls-5" d="M450,570.42v-2.27c2.39.11,4.73.21,6.91.21s4.29-.1,6.36-.21c2,4.58,3.84,8.65,5.52,12.09l13,26.89,11.79-24.72c3.17-6.66,5.36-11.45,6.38-14.26,2.47.11,4.52.21,6.23.21,1.49,0,4-.1,7.46-.21v2.27a25.27,25.27,0,0,0-5,.37,1.9,1.9,0,0,0-1.2.85,6.53,6.53,0,0,0-.53,3.24c0,.47-.11,3.77-.14,9.81v15.85c0,3.14,0,6.18.14,9.14,0,2.13.23,3.46.5,3.83a2,2,0,0,0,1.23.9,24.23,24.23,0,0,0,5,.41V617c-4.61-.1-7.91-.21-9.8-.21-1.57,0-4.93.11-10.18.21v-2.17a23.46,23.46,0,0,0,5-.41,2,2,0,0,0,1.19-.79,7.8,7.8,0,0,0,.52-3.34c0-.43.08-3.72.17-9.74V575.35l-11.88,24.81c-1.84,3.81-3.32,6.94-4.35,9.26-.75,1.76-1.88,4.49-3.4,8.22h-1.31c-.36-.86-.6-1.58-.87-2.11l-2.32-4.93-16.43-34.19v24.13c0,3.14.06,6.11.26,9.1a11.46,11.46,0,0,0,.49,3.87,1.9,1.9,0,0,0,1.26.9,22.54,22.54,0,0,0,4.95.41V617l-8.29-.21L450,617v-2.17a23.29,23.29,0,0,0,5-.41,2.13,2.13,0,0,0,1.19-.79,8.85,8.85,0,0,0,.53-3.34c0-.43,0-3.72.14-9.74V584.69c0-3.14-.06-6.15-.14-9.14a12.57,12.57,0,0,0-.48-3.88,2.42,2.42,0,0,0-1.24-.88A25.34,25.34,0,0,0,450,570.42Z" transform="translate(-181 -359.24)"/><path class="cls-5" d="M516.19,617v-2a12.51,12.51,0,0,0,2.82-.2,3.21,3.21,0,0,0,1.07-.62,8.83,8.83,0,0,0,1.46-2.42c.38-.68,1.59-3.48,3.78-8.24l7.42-16.59c.81-1.8,2.51-5.91,5.14-12.14h1.88l12.61,29.43c2.06,4.89,3.42,7.8,4.06,9a3.39,3.39,0,0,0,1.22,1.36,8.28,8.28,0,0,0,3,.38v2c-3.06-.1-5.19-.21-6.41-.21l-9.52.21v-2c2.19-.09,3.57-.12,4.06-.2a2.57,2.57,0,0,0,.94-.44,1.18,1.18,0,0,0,.25-.72,5.6,5.6,0,0,0-.43-1.71l-3.6-8.94h-17l-3.13,7.58a8.25,8.25,0,0,0-.85,2.92,1.24,1.24,0,0,0,.18.69,2.25,2.25,0,0,0,1,.56A22.31,22.31,0,0,0,530,615v2c-3.35-.1-5.87-.21-7.51-.21C520.56,616.78,518.45,616.89,516.19,617Zm13.68-16.45h14.84l-7.33-17.77Z" transform="translate(-181 -359.24)"/><path class="cls-5" d="M563.45,577v-1.83c.75,0,1.92,0,3.48.07l5.65.11c1.15,0,2.87,0,5.22-.11,3.08-.07,4.84-.14,5.34-.14a25.16,25.16,0,0,1,8.2,1,7.92,7.92,0,0,1,4,3.23,9.15,9.15,0,0,1,1.43,4.9,10.7,10.7,0,0,1-1.33,5,11,11,0,0,1-3.85,4.06,18.53,18.53,0,0,1-6.51,2.47c.51.69,1.62,2.24,3.5,4.61l7.43,9.77a45.12,45.12,0,0,0,3.65,4.56,1.34,1.34,0,0,0,.52.34,7,7,0,0,0,2,.14V617c-1.48-.1-2.76-.21-3.85-.21s-2.54.11-4.24.21c-1.3-1.51-3.43-4.34-6.44-8.62a68.92,68.92,0,0,0-4.43-5.94c-2-2.64-4-5-5.89-7.19l.29-.87c1,.08,1.8.08,2.3.08,3.56,0,6.25-.83,8.06-2.51a8.72,8.72,0,0,0,2.68-6.67,7.22,7.22,0,0,0-2.32-5.78c-1.59-1.44-4-2.14-7.16-2.14a18.07,18.07,0,0,0-5.89.95c-.07,1-.16,2.06-.16,2.94,0,.31-.1,3.16-.29,8.59v13.09c0,2.66.16,5.25.23,7.8a10.51,10.51,0,0,0,.35,3.28,2.68,2.68,0,0,0,1.16.82,20.06,20.06,0,0,0,4.25.3V617c-2.81-.1-5.41-.21-7.77-.21-1.87,0-5.07.11-9.53.21v-1.87a19.79,19.79,0,0,0,4.21-.3,2.48,2.48,0,0,0,1-.66,7.15,7.15,0,0,0,.47-2.92c0-.4.11-3.2.17-8.32V589.24c0-2.67,0-5.25-.17-7.83a12.26,12.26,0,0,0-.36-3.32,2.59,2.59,0,0,0-1.19-.74A20.34,20.34,0,0,0,563.45,577Z" transform="translate(-181 -359.24)"/><path class="cls-5" d="M603.32,617v-2a14,14,0,0,0,2.93-.2,4.77,4.77,0,0,0,1.09-.62,14.21,14.21,0,0,0,1.37-2.42c.35-.68,1.59-3.48,3.8-8.24l7.42-16.59c.83-1.8,2.51-5.91,5.16-12.14H627l12.56,29.43c2.06,4.89,3.41,7.8,4.08,9a3.21,3.21,0,0,0,1.24,1.36,7.94,7.94,0,0,0,3,.38v2c-3.07-.1-5.18-.21-6.42-.21l-9.52.21v-2c2.23-.09,3.54-.12,4-.2a2.15,2.15,0,0,0,.94-.44,1.15,1.15,0,0,0,.29-.72,7.91,7.91,0,0,0-.45-1.71L633.1,603H616L613,610.55a7.77,7.77,0,0,0-.87,2.92,1.05,1.05,0,0,0,.21.69,1.83,1.83,0,0,0,1.05.56,21.06,21.06,0,0,0,3.81.26v2c-3.33-.1-5.82-.21-7.51-.21C607.73,616.78,605.63,616.89,603.32,617ZM617,600.54h15l-7.39-17.77Z" transform="translate(-181 -359.24)"/></svg>